<?xml version="1.0" encoding="UTF-8"?>
<!DOCTYPE svg PUBLIC "-//W3C//DTD SVG 1.1//EN" "http://www.w3.org/Graphics/SVG/1.1/DTD/svg11.dtd">
<!-- Creator: CorelDRAW 2019 (64-Bit) -->
<svg xmlns="http://www.w3.org/2000/svg" xml:space="preserve" width="100%" height="100%" version="1.1" style="shape-rendering:geometricPrecision; text-rendering:geometricPrecision; image-rendering:optimizeQuality; fill-rule:evenodd; clip-rule:evenodd"
viewBox="0 0 20318 5167.2"
 xmlns:xlink="http://www.w3.org/1999/xlink">
 <defs>
  <style type="text/css">
   <![CDATA[
    .fil1 {fill:#24242E}
    .fil0 {fill:#24242E}
   ]]>
  </style>
 </defs>
 <g id="Layer_x0020_1">
  <metadata id="CorelCorpID_0Corel-Layer"/>
  <polygon class="fil0" points="9150.53,4183.43 10158.06,2152.28 11165.56,4183.43 "/>
  <path class="fil1" d="M19761.08 3563.93c0,607.42 -131.55,1028.92 -395.75,1264.57 -235.94,216.54 -648.05,332.28 -1214.68,332.28 -203.45,0 -2701.43,6.42 -2701.43,6.42 -514.46,-5.39 -863.53,-73.2 -1080.84,-237.91 -259.86,-195.4 -389.86,-563.07 -389.86,-1102.64l0 -308.33 1416.16 0 0 172.83c0,198.54 160.93,359.48 359.44,359.48l2305.09 0c198.51,0 359.44,-160.94 359.44,-359.48l0 -230.51c0,-198.54 -160.93,-359.44 -359.44,-359.44 0,0 -2832.42,1.23 -2905.8,0 -455.54,-7.73 -766.37,-130.46 -954.93,-392.12 -27.98,-38.1 -53.38,-80.18 -76.7,-125.48l-0.03 0c-131.91,-239.15 -198.26,-565.47 -198.26,-980.33 0,-607.42 131.58,-1028.92 395.71,-1264.57 235.97,-216.54 648.05,-332.28 1214.75,-332.28 203.41,0 2701.36,-6.42 2701.36,-6.42 514.46,5.39 863.57,73.2 1080.88,237.91 259.89,195.4 389.82,563.07 389.82,1102.64l0 308.33 -1416.12 0 0 -172.86c0,-198.51 -160.94,-359.45 -359.48,-359.45l-2305.05 0c-198.51,0 -359.48,160.94 -359.48,359.45l0 230.54c0.03,198.54 160.97,359.48 359.51,359.48 0,0 2832.42,-1.27 2905.76,-0.04 455.55,7.73 766.38,130.46 954.9,392.15 27.98,38.1 53.41,80.19 76.77,125.45 131.86,239.15 198.26,565.47 198.26,980.33z"/>
  <polygon class="fil1" points="11099.38,16.55 10158.03,16.55 9216.68,16.55 6667.86,5160.76 8165.51,5160.76 10158.03,1143.85 12150.56,5160.76 13648.2,5160.76 "/>
  <polygon class="fil1" points="1340.77,16.57 -0,16.57 -0,5160.78 1340.77,5160.78 1340.77,3201.73 2076.77,3201.73 4194.32,5160.78 6304.95,5160.78 3302.78,2561.61 6007.25,16.57 4024.46,16.57 2076.77,1952.93 1340.77,1952.93 "/>
  <path class="fil1" d="M20277.08 296.79c0,131.94 -106.64,239.57 -239.43,239.57 -131.41,0 -239.04,-107.63 -239.04,-239.57 0,-132.4 107.63,-239.25 239.04,-239.25 132.79,0 239.43,106.85 239.43,239.25zm-519.08 0c0,154.87 125.56,279.75 279.65,279.75 155.12,0 280.35,-124.88 280.35,-279.75 0,-155.04 -125.23,-280.24 -280.35,-280.24 -154.09,0 -279.65,125.2 -279.65,280.24zm324.7 -26.32c-9.95,7.84 -20.95,11.79 -36.09,11.79l-64.31 0 0 -89.89 64.31 0c15.14,0 26.14,3.81 36.09,11.92 8.61,7.66 12.77,19.27 12.77,33.34 0,14.08 -4.16,24.91 -12.77,32.84zm0 42.83c17.53,-5.04 31.68,-14.07 41.28,-27.66 10.33,-13.61 15.52,-29.84 15.52,-48.78 0,-25.51 -8.64,-46.32 -25.12,-61.32 -16.19,-14.96 -38.2,-22.47 -64.35,-22.47l-111.44 0 0 287.13 43.71 0 0 -120.94 54.33 0 60.85 120.94 50.94 0 -65.72 -126.9z"/>
 </g>
</svg>
