<svg width="155" height="59" viewBox="0 0 155 59" fill="none" xmlns="http://www.w3.org/2000/svg">
<path fill-rule="evenodd" clip-rule="evenodd" d="M71.6338 20.4975H53.0864C53.0864 18.9463 53.1081 17.7399 53.5356 16.2732C53.8156 15.3133 54.5163 14.2895 55.2456 13.648C57.9581 11.2625 61.185 11.4919 64.6565 11.4919C65.3663 11.4919 66.6088 11.6175 67.313 11.7282C67.593 11.7716 67.8628 11.8229 68.128 11.8903C69.1819 12.1574 70.1032 12.5101 70.8931 13.0374C72.4888 14.1023 73.7176 16.0278 73.7176 18.0332C73.7176 18.8037 73.7393 19.452 73.1826 20.0055C72.8466 20.34 72.2842 20.4975 71.6338 20.4975ZM150.455 3.76135H149.817V2.61426C150.431 2.61426 151.604 2.47387 151.604 3.08108C151.604 3.74537 151.26 3.76135 150.455 3.76135ZM148.839 6.26669C148.839 6.47328 149.149 6.39452 149.69 6.39452C149.788 6.39452 149.817 6.36485 149.817 6.26669V4.48385C150.331 4.48385 150.499 4.48955 150.827 4.87762L151.782 6.30093C151.926 6.45958 152.549 6.39452 152.922 6.39452C152.909 6.24044 152.856 6.21076 152.787 6.10461L152.108 5.04198C151.647 4.41993 151.592 4.57173 151.434 4.35601C151.762 4.35601 152.062 4.17795 152.233 4.00675C152.824 3.41665 152.809 1.84953 151.136 1.84953H148.839V6.26669ZM147.307 4.22818C147.307 3.53307 147.37 3.23631 147.624 2.63138C147.793 2.2239 148.107 1.79931 148.42 1.51625C148.736 1.22976 148.848 1.12247 149.293 0.90104C150.549 0.276703 151.863 0.441062 153.017 1.20351L153.361 1.49684C153.368 1.50255 153.378 1.51054 153.384 1.51625C153.391 1.52309 153.4 1.52994 153.407 1.53565C153.413 1.5425 153.423 1.55049 153.428 1.55734C154.498 2.57887 154.817 4.28867 154.156 5.63094C153.97 6.00988 153.727 6.38653 153.424 6.68329C152.059 8.01643 149.968 8.06437 148.403 6.7027C148.124 6.45958 147.83 5.99618 147.661 5.65833C147.49 5.31591 147.307 4.72354 147.307 4.22818ZM146.797 3.97365C146.797 4.73952 146.9 5.1915 147.168 5.81242C147.368 6.27696 147.679 6.67188 148.014 7.0063C149.207 8.19905 150.979 8.54147 152.558 7.85778C154.63 6.96179 155.569 4.49069 154.642 2.42707C154.059 1.13046 152.595 0.0233154 151.221 0.0233154H151.136C150.277 0.0233154 149.921 0.0335879 149.079 0.433072C147.808 1.03686 146.797 2.52637 146.797 3.97365ZM129.356 54.9456C129.356 57.2238 130.873 58.3013 133.185 58.3013H133.227H133.614C134.265 58.299 134.752 58.2761 135.474 58.081C137.036 57.6587 137.694 56.4362 137.694 54.8189V48.6166H135.865V54.7333C135.865 57.6198 132.438 56.9521 131.771 56.3586C131.344 55.9785 131.185 55.4752 131.185 54.6911V48.6166H129.356V54.9456ZM88.6483 53.3317C88.6483 54.844 88.8861 56.3038 89.6782 57.1028C90.1 57.5263 90.4772 57.8025 91.0968 57.9805C92.2719 58.3218 94.5157 58.2168 95.8794 58.2168C97.3471 58.2168 97.538 57.6062 97.538 56.2627V53.6296C97.538 53.5314 97.5094 53.5017 97.4111 53.5017H95.7091C95.7091 54.0576 95.7491 55.9534 95.6519 56.418C95.6039 56.6474 95.4119 56.7307 95.1558 56.7307C94.1362 56.7307 92.4227 56.8414 91.626 56.3894C91.1814 56.1372 90.9253 55.7708 90.7481 55.2275C90.4669 54.368 90.4669 52.4596 90.7367 51.5945C91.0796 50.4953 91.8821 50.1027 93.3269 50.1038L96.9024 50.105C97.3985 50.113 97.2831 50.2796 97.2831 48.6166H92.6045C90.5161 48.6166 89.2907 49.5788 88.8518 51.3685C88.7192 51.9084 88.6483 52.6457 88.6483 53.3317ZM147.351 53.3739H144.331V50.5707C144.331 50.3059 144.452 50.1038 144.712 50.1038H148.073C148.489 50.1038 148.809 50.2922 148.986 50.5513C149.295 51.0044 149.353 52.6092 148.829 53.0669C148.519 53.3374 147.915 53.3739 147.351 53.3739ZM142.501 49.8493V58.2168H144.203C144.301 58.2168 144.331 58.1871 144.331 58.089V54.8189H148.669C150.751 54.8189 151.093 53.3191 151.093 51.5055C151.093 49.9075 150.516 48.6166 148.754 48.6166H143.82C143.031 48.6166 142.501 49.0994 142.501 49.8493ZM116.851 53.4595L116.96 51.9962C117.291 50.1312 118.341 49.976 120.168 49.976C121.018 49.976 121.781 50.1244 122.329 50.7076C122.972 51.3959 122.934 52.8249 122.934 53.8419C122.934 56.0641 122.135 56.8574 119.914 56.8574C118.256 56.8574 117.322 56.5481 116.98 54.9433C116.913 54.6237 116.851 53.77 116.851 53.4595ZM120.564 58.3013H119.235C118.533 58.2636 117.88 58.1643 117.388 58.0205C115.2 57.3779 114.979 55.2423 114.979 53.2472C114.979 50.9416 115.558 49.1622 117.712 48.7125C118.633 48.5196 118.56 48.5961 119.358 48.5299C120.48 48.4374 122.016 48.5424 123.048 49.056C124.386 49.7226 124.599 50.9405 124.788 52.2451C124.837 52.5841 124.841 53.5611 124.808 53.9708C124.759 54.5518 124.833 54.7207 124.636 55.5425C124.409 56.4876 124.016 57.1884 123.23 57.6632C122.596 58.0444 121.6 58.2442 120.564 58.3013ZM102.047 49.9338V58.089C102.047 58.1871 102.077 58.2168 102.175 58.2168C104.098 58.2168 103.885 58.3469 103.877 57.7922L103.876 51.3354C103.876 50.1872 103.736 50.0616 104.94 50.0616C105.502 50.0616 107.63 50.0148 108.08 50.1541C108.381 50.2465 108.59 50.4154 108.69 50.7339C108.841 51.2098 108.837 52.3866 108.642 52.8226C108.197 53.8145 106.795 53.1901 105.642 53.3967C104.688 53.5679 104.881 54.5301 105.398 55.0426C105.507 55.151 105.585 55.2298 105.696 55.3394C105.754 55.3976 105.787 55.4284 105.843 55.4889L106.285 55.9397C106.648 56.3084 108.218 57.9634 108.461 58.1426C108.678 58.3024 109.282 58.2168 109.62 58.2168C110.031 58.2168 110.442 58.2168 110.852 58.2168C110.803 58.0319 110.614 57.9041 110.48 57.7819L108.333 55.7217C108.116 55.5037 107.637 55.0768 107.493 54.8611C108.014 54.8611 108.549 54.8862 109.006 54.8018C109.443 54.7219 109.721 54.4867 109.992 54.214C110.844 53.3602 110.912 50.5524 110.196 49.4852C109.85 48.9682 109.229 48.6166 108.386 48.6166H103.366C102.534 48.6166 102.047 49.1028 102.047 49.9338ZM88.0951 19.5204V43.1802H97.1127C97.1127 40.975 97.0613 21.7507 97.1379 21.2439C97.1813 20.9552 97.2008 19.6015 97.2956 18.895C97.3414 18.5491 97.4214 18.1531 97.4922 17.8164C97.6248 17.1738 97.8615 16.4741 98.1198 15.9376C99.6721 12.7064 102.882 11.6198 106.429 11.6198H110.64V5.12074C107.604 5.12074 102.468 4.98149 99.5863 5.46544C99.0468 5.55675 98.473 5.64463 97.9483 5.78502C96.9847 6.04298 96.6052 6.15826 95.7159 6.48583C95.5079 6.56231 95.229 6.67759 95.0278 6.77574C94.1705 7.19806 93.3075 7.65689 92.5565 8.25726C91.8181 8.84736 91.1699 9.46485 90.6053 10.2182C88.6426 12.8365 88.0951 15.9285 88.0951 19.5204ZM21.3959 43.6048C22.8911 43.6048 24.1279 43.6036 25.3898 43.09C26.1774 42.7693 26.4757 42.4554 27.0221 41.9167C27.1947 41.7466 27.2999 41.596 27.4428 41.4031C27.972 40.692 29.0682 37.9481 29.5357 36.9505C30.3919 35.1197 31.2732 32.9899 32.1168 31.1169L33.2644 28.526C33.3616 28.3102 33.4484 28.1105 33.549 27.8765L37.2926 19.4234C37.7407 18.3813 38.3008 17.2297 38.734 16.1899L40.1674 12.9483C40.3594 12.4986 40.5446 12.1014 40.7389 11.6495C40.9321 11.2032 41.1241 10.8048 41.3162 10.3563C41.6945 9.47169 42.0843 8.64876 42.465 7.76647C42.6204 7.40351 43.5852 5.30678 43.6012 5.12074H34.2852C34.252 5.26341 34.1663 5.4369 34.1091 5.58186L25.2241 27.5912C24.8434 28.5419 22.9814 33.297 22.5322 34.1199C22.451 34.2683 22.2521 34.5901 22.1286 34.694C21.5171 35.2019 20.9696 33.79 20.765 33.2764L17.3369 24.8473C15.3343 19.8457 13.2356 14.8305 11.2364 9.82895L9.31486 5.12074H0L8.88392 25.2182C8.97537 25.4408 9.0691 25.6405 9.17426 25.8631L12.6149 33.6405C12.8035 34.0936 12.9967 34.5 13.1876 34.9383L14.0494 36.8809C14.1512 37.1206 14.2358 37.2998 14.3364 37.5292L15.7938 40.7456C16.9574 42.8812 18.8972 43.6048 21.3959 43.6048ZM131.228 12.0444C133.597 12.0444 135.455 12.4998 137.255 13.333L138.255 13.8626C138.891 14.2438 139.981 14.9823 140.513 15.5165C141.051 16.0563 141.536 16.5197 141.996 17.1349C142.811 18.2238 142.888 18.4612 143.437 19.5627C144.102 20.8958 144.415 22.7722 144.415 24.32C144.415 25.975 143.944 27.8628 143.21 29.3192C142.88 29.9755 142.454 30.6421 142.015 31.2253C141.539 31.8611 141.063 32.3176 140.513 32.8689C140.112 33.2718 139.198 33.9258 138.758 34.218C135.16 36.6047 130.097 36.9768 126.099 35.3046C124.96 34.8275 123.372 33.8939 122.475 33.0607C122.392 32.9819 122.348 32.9226 122.259 32.8518C121.459 32.2138 120.308 30.698 119.843 29.8283L119.558 29.3055C119.228 28.6287 118.892 27.7201 118.713 27.0045C118.597 26.5342 118.41 25.5355 118.382 25.0002C118.367 24.7274 118.369 24.4444 118.351 24.2229C118.302 23.6351 118.548 22.0418 118.688 21.4836C118.785 21.0956 118.903 20.6436 119.049 20.2726C119.576 18.9361 120.266 17.6554 121.221 16.5791C121.297 16.4946 121.358 16.4513 121.432 16.3645C121.677 16.0735 121.91 15.7972 122.204 15.5633C122.947 14.9709 123.001 14.8419 123.954 14.2096C124.591 13.7884 125.275 13.4654 126.011 13.1207C127.427 12.4553 129.568 12.0444 131.228 12.0444ZM110.64 23.8109C110.64 26.0081 110.883 27.9279 111.528 29.8477C111.875 30.8818 112.298 31.9067 112.823 32.845C113.545 34.1347 114.335 35.3948 115.352 36.4791L118.254 39.1876C118.725 39.5483 119.19 39.8713 119.709 40.1978C119.972 40.3633 120.207 40.5048 120.475 40.6657C123.703 42.6163 127.78 43.5614 131.526 43.5614C134.03 43.5614 136.231 43.1596 138.455 42.4109C139.495 42.0594 140.552 41.5811 141.522 41.0983C143.054 40.3381 144.296 39.3508 145.612 38.3019C146.005 37.988 146.886 37.1183 147.173 36.7599C147.493 36.3593 147.935 35.9187 148.322 35.4005C151.694 30.9023 152.979 25.2707 151.604 19.775C150.979 17.2765 149.871 15.0519 148.377 13.0568C147.586 12.0021 146.539 10.8299 145.515 10.0116L143.19 8.25498C142.925 8.08948 142.693 7.95023 142.424 7.78815C142.279 7.70141 142.178 7.63635 142.018 7.55531L139.905 6.5235C139.028 6.13657 138.068 5.85579 137.146 5.583C135.255 5.02144 133.159 4.82284 131.185 4.82284C127.812 4.82284 124.679 5.63208 121.718 7.04968C121.561 7.12501 121.453 7.19235 121.302 7.27225L118.279 9.1795C117.689 9.62122 117.124 10.0892 116.607 10.6108L116.13 11.0696C116.092 11.1107 116.109 11.0913 116.067 11.1335L114.018 13.5898C113.92 13.7313 113.864 13.7873 113.775 13.9414L113.062 15.0999C111.571 17.6828 110.64 20.7714 110.64 23.8109ZM43.7292 24.49L43.8995 29.5441C43.9269 30.1365 44.159 31.8109 44.263 32.3656C44.7191 34.799 45.4404 36.7154 46.676 38.3681C46.8315 38.5759 46.9835 38.7402 47.131 38.932L47.6316 39.4947C47.8648 39.7481 48.7278 40.4854 49.0547 40.708C49.1713 40.7879 49.2354 40.8415 49.3519 40.9203C51.9376 42.6848 55.2582 43.1802 58.7434 43.1802H81.7568V36.6812H61.2536C59.3229 36.6812 57.4517 36.3867 55.9543 35.4736L55.0536 34.7602C54.2191 33.9247 53.7162 32.8107 53.4578 31.4673C53.3744 31.0302 53.2281 29.9858 53.2144 29.5452C53.1961 28.9528 53.0864 28.2452 53.0864 27.4633V26.9531H77.1628C80.009 26.9531 82.0803 25.3415 82.7444 22.7574C83.2416 20.8228 83.109 17.9179 82.7958 15.9753C82.3866 13.4254 81.4527 11.1107 79.6844 9.27195L79.1311 8.76175C78.3607 7.98219 76.4895 6.94809 75.6014 6.59541L74.0628 6.04982C73.809 5.96879 73.5598 5.89916 73.2672 5.82497C71.8361 5.46544 71.1628 5.42777 69.7374 5.23031L67.8045 5.07736C67.4501 5.08193 67.1815 5.03513 66.7837 5.03513C66.099 5.03513 65.4703 4.9929 64.7422 4.9929C60.2099 4.9929 56.1921 5.026 52.2176 6.54633C50.5956 7.16724 49.7497 7.69456 48.4078 8.73094C48.2809 8.82795 48.2237 8.90899 48.0911 9.01057C47.9414 9.127 47.8877 9.18635 47.7585 9.31532C46.532 10.5423 45.5055 12.0375 44.9569 13.6948C44.7625 14.2815 44.5453 14.9218 44.4116 15.5724C44.2756 16.2412 44.151 16.8724 44.0607 17.6006C44.0241 17.9054 43.951 18.3517 43.9407 18.6713L43.8126 20.3685C43.8058 20.5637 43.8172 20.7691 43.8149 20.9666C43.8126 21.2063 43.7703 21.2599 43.7692 21.5144L43.7292 24.49Z" fill="#24242E"/>
</svg>
